{"accessors" : [{"bufferView" : 0, "byteOffset" : 0, "componentType" : 5123, "count" : 16467, "type" : "SCALAR", "max" : [16466], "min" : [0]}, {"bufferView" : 1, "byteOffset" : 0, "componentType" : 5126, "count" : 16467, "type" : "VEC3", "max" : [3.410175085067749, 4.138375759124756, 8.660943984985352], "min" : [-3.4706544876098633, -1.48030424118042, -4.04983377456665], "name" : "POSITION"}, {"bufferView" : 1, "byteOffset" : 12, "componentType" : 5126, "count" : 16467, "type" : "VEC3", "max" : [0.9997524619102478, 0.9856147170066833, 0.9985677003860474], "min" : [-0.9952009916305542, -0.9999663233757019, -0.9982177019119263], "name" : "NORMAL"}], "asset" : {"generator" : "Aspose.3D 23.2", "version" : "2.0"}, "buffers" : [{"uri" : "data:application/octet-stream;base64,", "byteLength" : 428152}], "bufferViews" : [{"buffer" : 0, "byteOffset" : 0, "byteLength" : 32936, "target" : 34963}, {"buffer" : 0, "byteOffset" : 32940, "byteLength" : 395208, "byteStride" : 24, "target" : 34962}], "meshes" : [{"primitives" : [{"attributes" : {"POSITION" : 1, "NORMAL" : 2}, "indices" : 0, "mode" : 4}], "name" : ""}], "nodes" : [{"mesh" : 0, "name" : ""}], "scene" : 0, "scenes" : [{"nodes" : [0]}]}