####
#
# OBJ File Generated by Meshlab
#
####
# Object ground.obj
#
# Vertices: 98
# Faces: 162
#
####
vn 0.000000 0.000000 6.283185
v -19.055265 -38.932396 0.000000
vn 0.000000 0.000000 6.283185
v -6.657838 -38.116070 0.000000
vn 0.000000 0.000000 6.283185
v -14.188197 -25.701021 0.000000
vn 0.000000 0.000000 6.283185
v -14.951905 25.000000 0.000000
vn 0.000000 0.000000 6.283185
v -4.499268 31.241388 0.000000
vn 0.000000 0.000000 6.283185
v -16.922598 38.173733 0.000000
vn 0.000000 0.000000 6.283185
v -1.375392 -26.423725 0.000000
vn 0.000000 0.000000 6.283185
v -6.250000 41.546429 0.000000
vn 0.000000 0.000000 6.283185
v 9.491835 -25.613966 0.000000
vn 0.000000 0.000000 6.283185
v 5.714483 -14.189348 0.000000
vn 0.000000 0.000000 6.283185
v -5.317719 -16.686901 0.000000
vn 0.000000 0.000000 3.141593
v 37.500000 -50.000000 0.000000
vn 0.000000 0.000000 6.283185
v 29.640305 -38.485184 0.000000
vn 0.000000 0.000000 3.141593
v 25.000000 -50.000000 0.000000
vn 0.000000 0.000000 6.283185
v 17.678595 32.212677 0.000000
vn 0.000000 0.000000 6.283185
v 28.647350 26.440432 0.000000
vn 0.000000 0.000000 6.283185
v 29.665794 39.051479 0.000000
vn 0.000000 0.000000 6.283185
v 7.171827 -37.639286 0.000000
vn 0.000000 0.000000 6.283185
v 28.446955 12.765721 0.000000
vn 0.000000 0.000000 6.283185
v 39.296425 19.014400 0.000000
vn 0.000000 0.000000 6.283186
v 18.750000 42.266243 0.000000
vn 0.000000 0.000000 6.283185
v 40.849365 -40.849365 0.000000
vn 0.000000 0.000000 6.283185
v 6.698730 25.000000 0.000000
vn 0.000000 0.000000 6.283185
v 6.409486 38.927505 0.000000
vn 0.000000 0.000000 6.283185
v 18.211702 19.851599 0.000000
vn 0.000000 0.000000 6.283185
v 6.835898 12.721444 0.000000
vn 0.000000 0.000000 6.283185
v 17.636650 6.438691 0.000000
vn 0.000000 0.000000 6.283185
v 18.424206 -31.067469 0.000000
vn 0.000000 0.000000 6.283185
v -24.992664 -29.891106 0.000000
vn 0.000000 0.000000 6.283185
v -24.992664 29.891106 0.000000
vn 0.000000 0.000000 6.283185
v -39.174683 31.250000 0.000000
vn 0.000000 0.000000 6.283185
v -30.663799 39.658421 0.000000
vn 0.000000 0.000000 6.283185
v -31.095329 -40.153812 0.000000
vn 0.000000 0.000000 6.283185
v -39.174683 -31.250000 0.000000
vn 0.000000 0.000000 6.283185
v -32.469303 23.983866 0.000000
vn 0.000000 0.000000 6.283185
v -32.454781 -23.979322 0.000000
vn 0.000000 0.000000 6.283185
v 18.547268 -41.438389 0.000000
vn 0.000000 0.000000 6.283185
v 39.717308 30.886663 0.000000
vn 0.000000 0.000000 6.283185
v 28.348587 0.005824 0.000000
vn 0.000000 0.000000 6.283185
v 39.184166 6.273252 0.000000
vn 0.000000 0.000000 3.141593
v 50.000000 -25.000000 0.000000
vn 0.000000 0.000000 6.283185
v 39.221203 -18.669426 0.000000
vn 0.000000 0.000000 6.283185
v 39.453796 -30.766562 0.000000
vn 0.000000 0.000000 6.283185
v 39.174683 -6.250000 0.000000
vn 0.000000 0.000000 3.141593
v 50.000000 -12.500000 0.000000
vn 0.000000 0.000000 6.283185
v 28.357119 -12.486571 0.000000
vn 0.000000 0.000000 3.141593
v -12.500000 -50.000000 0.000000
vn 0.000000 0.000000 3.141593
v -50.000000 25.000000 0.000000
vn 0.000000 0.000000 6.283185
v -39.174683 18.750000 0.000000
vn 0.000000 0.000000 6.283185
v 28.404930 -24.903759 0.000000
vn 0.000000 0.000000 3.141593
v -25.000000 -50.000000 0.000000
vn 0.000000 0.000000 3.141593
v 50.000000 0.000000 0.000000
vn 0.000000 0.000000 6.283185
v -39.174683 6.250000 0.000000
vn 0.000000 0.000000 3.141593
v -50.000000 12.500000 0.000000
vn 0.000000 0.000000 3.141593
v -50.000000 0.000000 0.000000
vn 0.000000 0.000000 6.283185
v -39.174683 -6.250000 0.000000
vn 0.000000 0.000000 3.141593
v -50.000000 -25.000000 0.000000
vn 0.000000 0.000000 6.283185
v -39.174683 -18.750000 0.000000
vn 0.000000 0.000000 6.283185
v 17.524048 -18.750000 0.000000
vn 0.000000 0.000000 6.283185
v 17.525209 -6.246791 0.000000
vn 0.000000 0.000000 3.141593
v 0.000000 -50.000000 0.000000
vn 0.000000 0.000000 6.283185
v 6.717690 0.031983 0.000000
vn 0.000000 0.000000 6.283185
v -25.037613 -18.605196 0.000000
vn 0.000000 0.000000 6.283185
v -15.150339 -12.156002 0.000000
vn 0.000000 0.000000 6.283185
v -4.125958 18.751060 0.000000
vn 0.000000 0.000000 3.141593
v 12.500000 -50.000000 0.000000
vn 0.000000 0.000000 3.141593
v 50.000000 -37.500000 0.000000
vn 0.000000 0.000000 3.141593
v 50.000000 25.000000 0.000000
vn 0.000000 0.000000 3.141593
v 50.000000 12.500000 0.000000
vn 0.000000 0.000000 3.141593
v 0.000000 50.000000 0.000000
vn 0.000000 0.000000 3.141593
v 12.500000 50.000000 0.000000
vn 0.000000 0.000000 3.141593
v -25.000000 50.000000 0.000000
vn 0.000000 0.000000 3.141593
v -12.500000 50.000000 0.000000
vn 0.000000 0.000000 3.141593
v -50.000000 -12.500000 0.000000
vn 0.000000 0.000000 3.141593
v -50.000000 -37.500000 0.000000
vn 0.000000 0.000000 6.283185
v -4.126588 -6.250000 0.000000
vn 0.000000 0.000000 6.283185
v -14.951379 0.000888 0.000000
vn 0.000000 0.000000 6.283185
v -4.123427 6.255331 0.000000
vn 0.000000 0.000000 6.283185
v -14.951291 12.501037 0.000000
vn 0.000000 0.000000 6.283185
v -25.777224 -6.250000 0.000000
vn 0.000000 0.000000 6.283185
v -25.236839 18.667526 0.000000
vn 0.000000 0.000000 3.141593
v 25.000000 50.000000 0.000000
vn 0.000000 0.000000 3.141593
v 37.500000 50.000000 0.000000
vn 0.000000 0.000000 3.141593
v -50.000000 37.500000 0.000000
vn 0.000000 0.000000 6.283185
v -25.777224 6.250000 0.000000
vn 0.000000 0.000000 3.141593
v -37.500000 50.000000 0.000000
vn 0.000000 0.000000 3.141593
v -37.500000 -50.000000 0.000000
vn 0.000000 0.000000 3.141593
v 50.000000 37.500000 0.000000
vn 0.000000 0.000000 6.283185
v -40.849365 -40.849365 0.000000
vn 0.000000 0.000000 1.570796
v -50.000000 -50.000000 0.000000
vn 0.000000 0.000000 1.570796
v 50.000000 -50.000000 0.000000
vn 0.000000 0.000000 6.283185
v 40.849365 40.849365 0.000000
vn 0.000000 0.000000 1.570796
v 50.000000 50.000000 0.000000
vn 0.000000 0.000000 6.283185
v -40.849365 40.849365 0.000000
vn 0.000000 0.000000 1.570796
v -50.000000 50.000000 0.000000
vn 0.000000 0.000000 6.283185
v -32.475952 12.500000 0.000000
vn 0.000000 0.000000 6.283186
v -32.475952 -12.500000 0.000000
vn 0.000000 0.000000 6.283185
v -32.475952 -0.000000 0.000000
# 98 vertices, 0 vertices normals

f 1//1 2//2 3//3
f 4//4 5//5 6//6
f 2//2 7//7 3//3
f 5//5 8//8 6//6
f 7//7 9//9 10//10
f 10//10 11//11 7//7
f 12//12 13//13 14//14
f 15//15 16//16 17//17
f 18//18 7//7 2//2
f 18//18 9//9 7//7
f 16//16 19//19 20//20
f 17//17 21//21 15//15
f 12//12 22//22 13//13
f 23//23 15//15 24//24
f 5//5 23//23 24//24
f 25//25 26//26 27//27
f 25//25 19//19 16//16
f 28//28 9//9 18//18
f 23//23 26//26 25//25
f 27//27 19//19 25//25
f 3//3 29//29 1//1
f 6//6 30//30 4//4
f 23//23 25//25 15//15
f 31//31 30//30 32//32
f 33//33 29//29 34//34
f 31//31 35//35 30//30
f 29//29 36//36 34//34
f 25//25 16//16 15//15
f 18//18 37//37 28//28
f 20//20 38//38 16//16
f 39//39 40//40 19//19
f 19//19 40//40 20//20
f 39//39 19//19 27//27
f 41//41 42//42 43//43
f 44//44 42//42 45//45
f 44//44 46//46 42//42
f 47//47 2//2 1//1
f 48//48 49//49 31//31
f 46//46 50//50 42//42
f 47//47 1//1 51//51
f 45//45 42//42 41//41
f 52//52 40//40 44//44
f 53//53 49//49 54//54
f 55//55 56//56 53//53
f 57//57 34//34 58//58
f 10//10 59//59 60//60
f 61//61 2//2 47//47
f 52//52 44//44 45//45
f 54//54 49//49 48//48
f 42//42 50//50 43//43
f 50//50 13//13 43//43
f 62//62 10//10 60//60
f 63//63 3//3 64//64
f 65//65 5//5 4//4
f 65//65 26//26 23//23
f 66//66 18//18 61//61
f 18//18 2//2 61//61
f 41//41 43//43 67//67
f 68//68 20//20 69//69
f 70//70 24//24 71//71
f 72//72 6//6 73//73
f 55//55 53//53 54//54
f 74//74 56//56 55//55
f 57//57 58//58 74//74
f 75//75 34//34 57//57
f 60//60 59//59 46//46
f 46//46 59//59 50//50
f 27//27 26//26 62//62
f 62//62 76//76 10//10
f 77//77 64//64 76//76
f 78//78 65//65 79//79
f 80//80 63//63 64//64
f 4//4 81//81 79//79
f 82//82 17//17 83//83
f 48//48 31//31 84//84
f 58//58 56//56 74//74
f 44//44 39//39 46//46
f 44//44 40//40 39//39
f 39//39 60//60 46//46
f 39//39 27//27 60//60
f 27//27 62//62 60//60
f 62//62 78//78 76//76
f 62//62 26//26 78//78
f 78//78 77//77 76//76
f 78//78 79//79 77//77
f 78//78 26//26 65//65
f 77//77 80//80 64//64
f 65//65 23//23 5//5
f 50//50 28//28 13//13
f 50//50 59//59 28//28
f 69//69 40//40 52//52
f 20//20 40//40 69//69
f 65//65 4//4 79//79
f 81//81 85//85 79//79
f 77//77 85//85 80//80
f 79//79 85//85 77//77
f 7//7 11//11 3//3
f 86//86 32//32 72//72
f 51//51 33//33 87//87
f 24//24 8//8 5//5
f 88//88 38//38 68//68
f 68//68 38//38 20//20
f 15//15 21//21 24//24
f 72//72 32//32 6//6
f 1//1 33//33 51//51
f 16//16 38//38 17//17
f 10//10 9//9 59//59
f 70//70 8//8 24//24
f 6//6 8//8 73//73
f 76//76 11//11 10//10
f 3//3 11//11 64//64
f 66//66 37//37 18//18
f 82//82 21//21 17//17
f 24//24 21//21 71//71
f 87//87 89//89 90//90
f 67//67 22//22 91//91
f 83//83 92//92 93//93
f 84//84 94//94 95//95
f 90//90 89//89 75//75
f 91//91 22//22 12//12
f 93//93 92//92 88//88
f 95//95 94//94 86//86
f 13//13 22//22 43//43
f 63//63 29//29 3//3
f 4//4 30//30 81//81
f 13//13 37//37 14//14
f 1//1 29//29 33//33
f 32//32 30//30 6//6
f 59//59 9//9 28//28
f 73//73 8//8 70//70
f 64//64 11//11 76//76
f 14//14 37//37 66//66
f 28//28 37//37 13//13
f 86//86 94//94 32//32
f 33//33 89//89 87//87
f 71//71 21//21 82//82
f 75//75 89//89 34//34
f 43//43 22//22 67//67
f 17//17 92//92 83//83
f 31//31 94//94 84//84
f 88//88 92//92 38//38
f 81//81 35//35 96//96
f 97//97 36//36 63//63
f 98//98 97//97 80//80
f 80//80 97//97 63//63
f 81//81 96//96 85//85
f 85//85 98//98 80//80
f 53//53 96//96 49//49
f 56//56 98//98 53//53
f 58//58 97//97 56//56
f 56//56 97//97 98//98
f 85//85 96//96 98//98
f 98//98 96//96 53//53
f 96//96 35//35 49//49
f 58//58 36//36 97//97
f 34//34 36//36 58//58
f 49//49 35//35 31//31
f 32//32 94//94 31//31
f 34//34 89//89 33//33
f 38//38 92//92 17//17
f 63//63 36//36 29//29
f 30//30 35//35 81//81
# 162 faces, 0 coords texture

# End of File
